Coordinates
version=1
nRows=5
nColumns=63
inDegrees=yes

Units are S.I. units (second, meters, Newtons, ...)
If the header above contains a line with 'inDegrees', this indicates whether rotational values are in degrees (yes) or radians (no).

endheader
time	pelvis_tilt	pelvis_list	pelvis_rotation	pelvis_tx	pelvis_ty	pelvis_tz	hip_flexion_r	hip_adduction_r	hip_rotation_r	knee_angle_r	knee_angle_r_beta	ankle_angle_r	subtalar_angle_r	mtp_angle_r	hip_flexion_l	hip_adduction_l	hip_rotation_l	knee_angle_l	knee_angle_l_beta	ankle_angle_l	subtalar_angle_l	mtp_angle_l	L5_S1_Flex_Ext	L5_S1_Lat_Bending	L5_S1_axial_rotation	L4_L5_Flex_Ext	L4_L5_Lat_Bending	L4_L5_axial_rotation	L3_L4_Flex_Ext	L3_L4_Lat_Bending	L3_L4_axial_rotation	L2_L3_Flex_Ext	L2_L3_Lat_Bending	L2_L3_axial_rotation	L1_L2_Flex_Ext	L1_L2_Lat_Bending	L1_L2_axial_rotation	L1_T12_Flex_Ext	L1_T12_Lat_Bending	L1_T12_axial_rotation	Abs_r3	Abs_r2	Abs_r1	Abs_t1	Abs_t2	neck_flexion	neck_bending	neck_rotation	arm_flex_r	arm_add_r	arm_rot_r	elbow_flex_r	pro_sup_r	wrist_flex_r	wrist_dev_r	arm_flex_l	arm_add_l	arm_rot_l	elbow_flex_l	pro_sup_l	wrist_flex_l	wrist_dev_l
      0.00800000	    -61.47108134	     -4.38573665	      1.03903068	     -0.27302491	      1.10089809	     -0.03351217	    121.83500382	    -11.71217963	     -7.80065052	     87.87473190	      1.53370340	     23.71204830	      8.38663728	      0.00000000	    100.51397413	     -6.02653181	      2.48589285	     77.66236968	      1.35546406	      9.25281844	      5.54253853	      0.00000000	     -0.09479838	      0.90538318	     -0.14621114	     -0.17605007	      1.20415963	     -0.15534934	     -0.15574426	      2.20134867	     -0.15534934	     -0.10834507	      2.20134867	     -0.12793475	     -0.08802977	      1.84625739	     -0.11879655	     -0.05416779	      1.40243855	     -0.10965835	     -0.67713534	     10.24187564	     -0.81318249	      0.00000000	      0.00000000	      0.00000000	      0.00000000	      0.00000001	     66.42857169	    -19.08005831	     19.60923704	     52.91208930	     62.44103088	      0.00000000	      4.28295536	     59.98762432	    -18.28965223	     11.71603576	     54.80361379	     61.96518109	      0.00000000	      4.28295536
      0.01700000	    -61.17899540	     -5.29081564	      2.47001954	     -0.27408505	      1.10056993	     -0.03434853	    119.42644162	    -12.15210918	     -7.79335831	     83.38523515	      1.45534690	     23.33292522	      7.50181498	      0.00000000	    102.04586576	     -4.77384084	      3.36271493	     81.99033500	      1.43100130	      9.72589451	      4.91906930	      0.00000000	     -0.09931622	      0.94840094	     -0.24188601	     -0.18444015	      1.26137325	     -0.25700388	     -0.16316662	      2.30594205	     -0.25700388	     -0.11350851	      2.30594205	     -0.21165026	     -0.09222504	      1.93397920	     -0.19653238	     -0.05674929	      1.46907306	     -0.18141451	     -0.70940582	     10.72850114	     -1.34529742	      0.00000000	      0.00000000	      0.00000000	      0.00000000	      0.00000001	     66.03700946	    -19.91997395	     18.41182262	     53.17845847	     62.19866971	      0.00000000	      4.29661509	     60.99072137	    -17.01914520	     12.29084304	     53.67710399	     61.92422509	      0.00000000	      4.29661509
      0.02500000	    -61.10505432	     -5.27994181	      2.92464664	     -0.27422835	      1.10040391	     -0.03462141	    118.78485495	    -12.20905134	     -7.47936531	     82.08268804	      1.43261317	     22.91433546	      7.26626594	      0.00000000	    102.40305471	     -4.24778572	      3.48947638	     83.25157316	      1.45301406	     10.23724185	      4.58625600	      0.00000000	     -0.09837985	      0.93573624	     -0.32000882	     -0.18270122	      1.24452920	     -0.34000938	     -0.16162826	      2.27514910	     -0.34000938	     -0.11243833	      2.27514910	     -0.28000772	     -0.09135553	      1.90815335	     -0.26000717	     -0.05621425	      1.44945544	     -0.24000662	     -0.70271744	     10.58523553	     -1.77979308	      0.00000000	      0.00000000	      0.00000000	      0.00000000	      0.00000001	     65.88859296	    -19.90287222	     18.31818600	     53.26434079	     61.90617582	      0.00000000	      4.31597576	     61.02185459	    -17.02738437	     12.27799883	     53.73421756	     61.64918537	      0.00000000	      4.31597576
      0.03300000	    -61.01907333	     -5.49485829	      3.12221971	     -0.27425811	      1.10026436	     -0.03469450	    117.83601732	    -12.17264606	     -7.66018936	     80.42392969	      1.40366237	     22.48381096	      7.08786792	      0.00000000	    102.85016001	     -3.94461424	      3.89206914	     84.75213227	      1.47920376	     11.35161069	      4.24278260	      0.00000000	     -0.09646125	      0.95441091	     -0.35287478	     -0.17913818	      1.26936652	     -0.37492946	     -0.15847618	      2.32055470	     -0.37492946	     -0.11024556	      2.32055470	     -0.30876543	     -0.08957392	      1.94623474	     -0.28671076	     -0.05511796	      1.47838251	     -0.26465609	     -0.68901305	     10.79648714	     -1.96258367	      0.00000000	      0.00000000	      0.00000000	      0.00000000	      0.00000001	     65.79479305	    -19.73653831	     17.92178607	     53.00346778	     61.76980572	      0.00000000	      4.32691404	     60.96447126	    -16.99206105	     12.28419913	     53.72730118	     61.56519414	      0.00000000	      4.32691404
      0.04200000	    -60.92683878	     -5.56952630	      3.48243987	     -0.27430036	      1.10008797	     -0.03489022	    116.83867735	    -12.18175021	     -7.61281839	     78.64225401	      1.37256626	     22.02159493	      6.88510026	      0.00000000	    103.37491034	     -3.46950073	      4.21195927	     86.41742353	      1.50826857	     12.30202965	      4.08893882	      0.00000000	     -0.09619544	      0.95307410	     -0.42435644	     -0.17864455	      1.26758856	     -0.45087871	     -0.15803948	      2.31730437	     -0.45087871	     -0.10994177	      2.31730437	     -0.37131188	     -0.08932708	      1.94350871	     -0.34478960	     -0.05496607	      1.47631179	     -0.31826733	     -0.68711439	     10.78136486	     -2.36014319	      0.00000000	      0.00000000	      0.00000000	      0.00000000	      0.00000001	     65.64249352	    -19.56263832	     17.65859204	     52.92941615	     61.66224028	      0.00000000	      4.33574576	     60.92144381	    -17.04211015	     12.21135111	     53.78235226	     61.48975938	      0.00000000	      4.33574576
